<svg xmlns="http://www.w3.org/2000/svg" version="1.1" xmlns:xlink="http://www.w3.org/1999/xlink" xmlns:svgjs="http://svgjs.dev/svgjs" viewBox="0 0 800 800" opacity="0.4"><defs><linearGradient x1="50%" y1="0%" x2="50%" y2="100%" id="uundulate-grad"><stop stop-color="hsl(37, 99%, 67%)" stop-opacity="1" offset="45%"></stop><stop stop-color="hsl(316, 73%, 52%)" stop-opacity="1" offset="100%"></stop></linearGradient></defs><g stroke-width="5" stroke="url(#uundulate-grad)" fill="none"><path d="M2564.7584559979277 -1030.3471578828205C2706.665235321885 -471.7937204571963 1469.3018799255933 987.8585488138392 866.7587392014375 1626.9696341206886C264.21559847728213 2266.0807194275385 152.78230944907136 2076.9644789482554 -327.44861947802156 2037.38605159006C-807.6795484051142 1997.8076242318643 -1142.1325911204674 1817.050559754971 -1438.3497196486067 1436.993182801345C-1734.5668481767461 1056.9358058477192 -1828.1802243730779 688.4680461495527 -1749.2908364130844 213.1106422126577C-1670.401448453091 -262.24676172423756 -1462.7842063697087 -580.7228753176316 -1059.680657440639 -844.7223560957486C-656.5771085115693 -1108.7218368738656 -569.4852835199224 -1015.415031816671 185.60619844644498 -1054.086865522311C940.6976804128117 -1092.7586992279507 2422.8516766739713 -1588.9005953084447 2564.7584559979277 -1030.3471578828205C2706.665235321885 -471.7937204571963 1469.3018799255933 987.8585488138392 866.7587392014375 1626.9696341206886 "></path><path d="M2530.9343559393055 -1007.9978700536578C2670.6238418363264 -458.17183008780876 1452.594288868101 978.6733724758669 859.4658847177607 1607.7983470747963C266.33748056742024 2236.9233216737266 156.64533668027434 2050.762022451932 -316.0819839823323 2011.8020080212086C-788.809304644939 1972.841993590485 -1118.0365185678647 1794.909258246043 -1409.625254462752 1420.7902778073176C-1701.2139903576392 1046.6712973685917 -1793.3646575509033 683.96084641571 -1715.7079162777848 216.03090191532874C-1638.0511750046662 -251.89904258505248 -1433.6779523288367 -565.39896690355 -1036.8728963517838 -825.2734557945089C-640.0678403747308 -1085.1479446854678 -554.3368251485783 -993.2990584572918 188.956352412064 -1031.3666447612811C932.249529972707 -1069.4342310652705 2391.2448700422856 -1557.8239100195065 2530.9343559393055 -1007.9978700536578C2670.6238418363264 -458.17183008780876 1452.594288868101 978.6733724758669 859.4658847177607 1607.7983470747963 "></path><path d="M2497.109950704902 -985.6485211893388C2634.5821431749855 -444.54987868326543 1435.8863926348276 969.4882571730504 852.1727250583021 1588.6271210640607C268.45905748177665 2207.765984955071 160.50805873569652 2024.559626990766 -304.7156536624241 1986.2180254875143C-769.9393660605451 1947.8764239842621 -1093.9407511910435 1772.7680177722714 -1380.9010944526785 1404.5874338484464C-1667.8614377143135 1036.4068499246214 -1758.54939590451 679.4537077170235 -1682.1253013182663 218.9512226531558C-1605.701206732023 -241.5512624107114 -1404.5720034637461 -550.0749974543121 -1014.0654404387099 -805.8244944581129C-623.5588774136736 -1061.573991461914 -539.1886719530155 -971.1830240627564 192.3062012019027 -1008.6463629650951C923.8010743568202 -1046.1097018674338 2359.6377582348186 -1526.7471636954122 2497.109950704902 -985.6485211893388C2634.5821431749855 -444.54987868326543 1435.8863926348276 969.4882571730504 852.1727250583021 1588.6271210640607 "></path><path d="M2463.285667540811 -963.2994469832229C2598.540566583958 -430.9282019369248 1419.1786184718671 960.3028672120308 844.8796874691561 1569.4556203951215C270.58075646644556 2178.6083735782126 164.3709028614312 1998.356956871396 -293.3492012722038 1960.633768295616C-751.0693054058388 1922.9105797198358 -1069.8448617439099 1750.626502640297 -1352.1768123722927 1388.384315231372C-1634.5087630006756 1026.1421278224475 -1723.7340121878042 674.9462943601329 -1648.5425642884354 221.87126873277975C-1573.3511163890666 -231.20375689457342 -1375.4659325283428 -534.7513026632773 -991.2578624553234 -786.3758077799201C-607.0497923823038 -1038.000312896563 -524.0403966871404 -949.0672643264242 195.65617206205297 -985.9263558271123C915.3527408112468 -1022.7854473278003 2328.030768497664 -1495.670692029521 2463.285667540811 -963.2994469832229C2598.540566583958 -430.9282019369248 1419.1786184718671 960.3028672120308 844.8796874691561 1569.4556203951215 "></path><path d="M2429.461048683361 -940.9501896716383C2562.4986542995703 -417.30634208511583 1402.4705086155464 951.11766035648 837.5863141866507 1550.284302831651C272.7021197577551 2149.4509453068226 168.23341129380697 1972.1544698574949 -281.98308457534245 1935.0496942091863C-732.1995804444919 1897.9449185608782 -1045.7493079901355 1728.485170613791 -1323.452865985266 1372.1813797197665C-1601.1564239803968 1015.8775888257424 -1688.9189641644577 670.4390641087116 -1614.9601629519639 224.79149791787222C-1541.0013617394702 -220.85606827296692 -1346.3601972862991 -519.427424766774 -968.4506201652962 -766.9269379962586C-590.5410430442935 -1014.4264512257432 -508.89245711462445 -926.9513214846231 199.0058072288448 -963.2061655836607C906.904071572314 -999.4610096826981 2296.4234430671513 -1464.5940372581608 2429.461048683361 -940.9501896716383C2562.4986542995703 -417.30634208511583 1402.4705086155464 951.11766035648 837.5863141866507 1550.284302831651 "></path><path d="M2395.6369181071605 -918.6010849479443C2526.4572302964334 -403.68463482119705 1385.762887040476 941.932300913039 830.2934291853953 1531.1128326802905C274.82397133031463 2120.2933644475424 172.09640800743182 1945.9518302557035 -270.6164795972313 1909.465467534867C-713.3293672018949 1872.9791048140305 -1021.653265955111 1706.3436859993944 -1294.7284313169894 1355.9782916202707C-1567.803596678868 1005.6128972411466 -1654.1034278598613 665.9316812693996 -1581.3772733342425 227.71157451507474C-1508.6511188086236 -210.5085322392506 -1317.2539737630054 -504.1036994581609 -945.6428895940194 -747.4782208004875C-574.0318054250331 -990.8527421428141 -493.7440292608585 -904.8355312307128 202.3559306768857 -940.4861279280996C898.4558906146303 -976.1367246254864 2264.8166059178875 -1433.5175350746918 2395.6369181071605 -918.6010849479443C2526.4572302964334 -403.68463482119705 1385.762887040476 941.932300913039 830.2934291853953 1531.1128326802905 "></path><path d="M2361.8125739079132 -896.2519802242504C2490.415592670248 -390.0629275572785 1369.0550518423593 932.7469414695975 823.000330561093 1511.9413625289294C276.9456092798273 2091.135783588262 175.9591910980107 1919.7491906539117 -259.25008824216684 1883.8812408605468C-694.4593675823448 1848.0132910671823 -997.5574375431335 1684.2022013849978 -1266.0042102717598 1339.7752035207745C-1534.450983000386 995.3482056565508 -1619.2881051783118 661.4242984300881 -1547.7945973395676 230.6316511122766C-1476.3010895008238 -200.1609962055345 -1288.1479638627584 -488.77997414954814 -922.835372645789 -728.0295036047166C-557.5227814288196 -967.2790330598851 -478.59581503013965 -882.7197409768024 205.70584050188063 -917.7660902725386C890.0074960339007 -952.8124395682748 2233.209555145577 -1402.4410328912222 2361.8125739079132 -896.2519802242504C2490.415592670248 -390.0629275572785 1369.0550518423593 932.7469414695975 823.000330561093 1511.9413625289294 "></path><path d="M2327.9880160856173 -873.9027534302438C2454.3737414210173 -376.44109822304745 1352.3470030211947 923.5617040964689 815.7070183137439 1492.7700144478813C279.0670336062931 2061.978324799294 179.82176056554226 1893.5466731224328 -247.8839105101497 1858.29713625654C-675.5895815858414 1823.047599390647 -973.4618227542029 1662.0608388409141 -1237.280202849577 1323.5722374915908C-1501.098582944951 985.083636142268 -1584.472996119809 656.9170376610887 -1514.21213496794 233.55184977979138C-1443.9512738160709 -189.8133381015059 -1259.0421675855584 -473.45612677062263 -900.0280693206057 -708.5806643386331C-541.013971055653 -943.7052019066435 -463.44781442246745 -860.6038286525795 209.05553670382824 -895.0459305466651C881.5588878301241 -929.4880324407507 2201.6022907502193 -1371.3644086374404 2327.9880160856173 -873.9027534302438C2454.3737414210173 -376.44109822304745 1352.3470030211947 923.5617040964689 815.7070183137439 1492.7700144478813 "></path><path d="M2294.16367188637 -851.5535876713936C2418.3321037948335 -362.8193299239724 1335.639167823078 914.3764056881837 808.4139196894416 1473.5986053316765C281.18867155580574 2032.8208049751702 183.6845436561207 1867.3440945557973 -236.5175191550852 1832.712970617376C-656.7195819662911 1798.0818466789551 -949.3659943422253 1639.9194152616733 -1208.5559818043473 1307.369210427251C-1467.7459692664693 974.8190055928285 -1549.6576734382595 652.409715856933 -1480.6294589732652 236.4719874121497C-1411.601244508271 -179.46574103263356 -1229.9361576853114 -458.1323404268535 -877.2205523723756 -689.1318861077059C-524.5049470594395 -920.1314317885583 -448.2996001917486 -838.4879773635129 212.40544652882272 -872.3258318559479C873.1104932493936 -906.1636863483828 2169.995239977908 -1340.2878454188149 2294.16367188637 -851.5535876713936C2418.3321037948335 -362.8193299239724 1335.639167823078 914.3764056881837 808.4139196894416 1473.5986053316765 "></path><path d="M2260.33954131017 -829.2043608773872C2382.2906797916967 -349.1975005897416 1318.9315462480076 905.1911683150547 801.1210346881862 1454.4272572506284C283.3105231283653 2003.6633461862025 187.547540369746 1841.1415770243188 -225.15091417697408 1807.1288660133691C-637.8493687236944 1773.1161550024199 -925.2699523072009 1617.7780527175896 -1179.8315471360706 1291.1662443980672C-1434.3931419649405 964.5544360785452 -1514.842137133663 647.902455087934 -1447.0465693555439 239.3921860796645C-1379.2510015774244 -169.11808292860496 -1200.8299341620177 -442.8084930479281 -854.4128218010984 -669.6830468416224C-507.9957094401793 -896.5576006353167 -433.15117233798264 -816.37206503929 215.75556997686454 -849.6056721300743C864.6623122917108 -882.8392792208587 2138.3884028286443 -1309.211221165033 2260.33954131017 -829.2043608773872C2382.2906797916967 -349.1975005897416 1318.9315462480076 905.1911683150547 801.1210346881862 1454.4272572506284 "></path><path d="M2226.51507504061 -806.8552561536933C2346.2489200951986 -335.5757933258228 1302.2235889795775 896.0058088716132 793.8278139935715 1435.2557870992678C285.43203900756544 1974.5057653269214 191.41020139001193 1814.9389374225266 -213.78464489222233 1781.5446393390494C-618.9794911744566 1748.1503412555721 -901.174245965536 1595.636568103193 -1151.1074481611536 1274.963156298571C-1401.040650356771 954.2897444939495 -1480.026936522426 643.395072248622 -1413.4640154311817 242.31226267686634C-1346.9010943399371 -158.77054689488887 -1171.7240463320832 -427.4847677393153 -831.6054269231807 -650.2343296458514C-491.4868075142781 -872.9838915523876 -418.00308017757607 -794.2562747853797 219.10535773154606 -826.8856344745134C856.2137956406686 -859.5149941636471 2106.7812299860216 -1278.1347189815635 2226.51507504061 -806.8552561536933C2346.2489200951986 -335.5757933258228 1302.2235889795775 896.0058088716132 793.8278139935715 1435.2557870992678 "></path><path d="M2192.6906087710504 -784.5060293596867C2310.2071603987024 -321.95396399159176 1285.5156317111482 886.8205714984847 786.5345932989571 1416.0844390182192C287.5535548867656 1945.3483065379542 195.2728624102781 1788.7364198910477 -202.41837560747058 1755.9605347350425C-600.109613625219 1723.1846495790364 -877.0785396238709 1573.4952055591093 -1122.3833491862363 1258.7601902693877C-1367.6881587486018 944.0251749796662 -1445.211735911189 638.8878114796225 -1379.8814615068195 245.23246134438136C-1314.55118710245 -148.42288879086027 -1142.6181585021488 -412.1609203603898 -808.798032045263 -630.7854903797679C-474.9779055883771 -849.410060399146 -402.8549880171697 -772.1403624611567 222.45514548622805 -804.1654747486398C847.7652789896256 -836.1905870361229 2075.1740571433984 -1247.0580947277817 2192.6906087710504 -784.5060293596867C2310.2071603987024 -321.95396399159176 1285.5156317111482 886.8205714984847 786.5345932989571 1416.0844390182192 "></path><path d="M2158.866417159694 -762.1568636008366C2274.165675360409 -308.33219569251696 1268.8079491009216 877.6352730901999 779.2416472625455 1396.9130299020148C289.6753454241689 1916.1907867138298 199.13579808874715 1762.5338413244122 -191.0518316645157 1730.3763690958785C-581.2394614177783 1698.2188968673445 -852.9825586240029 1551.353781979869 -1093.658975553116 1242.5571632050478C-1334.3353924822293 933.7605444302267 -1410.3962606417488 634.3804896754668 -1346.2986329242542 248.15259897673945C-1282.2010052067594 -138.07529172198792 -1113.5119960140114 -396.83713401662067 -785.9903625091422 -611.3367121488407C-458.468729004273 -825.8362902810608 -387.7066211985598 -750.0245111720901 225.80520789911338 -781.4453760579225C839.3170369967866 -812.866240943755 2043.5671589589783 -1215.9815315091562 2158.866417159694 -762.1568636008366C2274.165675360409 -308.33219569251696 1268.8079491009216 877.6352730901999 779.2416472625455 1396.9130299020148 "></path><path d="M2125.0419203725555 -739.8077588771425C2238.1238851463345 -294.7104884285982 1252.0999613149138 868.4499136467584 771.9483960503526 1377.7415597506542C291.7968307857909 1887.0332058545496 202.99842859143496 1736.3312017226212 -179.68559289734185 1704.7921424215592C-562.3696143861189 1673.2530831204972 -828.8868827999158 1529.2122973654728 -1064.934907095777 1226.354075105552C-1300.982931391638 923.4958528456309 -1375.5810905480898 629.8731068361551 -1312.7161095174702 251.07267557394175C-1249.8511284868505 -127.72775568827183 -1084.406138701655 -381.51340870800766 -763.1829981488027 -591.8879949530697C-441.9598575959503 -802.2625811981317 -372.55855955573156 -727.9087209181797 229.15496513621724 -758.7253384023616C830.8684898281658 -789.5419558865433 2011.959955598777 -1184.9050293256869 2125.0419203725555 -739.8077588771425C2238.1238851463345 -294.7104884285982 1252.0999613149138 868.4499136467584 771.9483960503526 1377.7415597506542 "></path><path d="M2091.217728761199 -717.4585626007142C2202.08240010804 -281.08868961194537 1235.3922787046872 859.2646457560513 764.6554500139409 1358.5701811520275C293.91862132319443 1857.8757165480033 206.86136426990402 1710.1286536735638 -168.31904895438697 1679.2080072999734C-543.4994621786782 1648.287360926383 -804.7909018000478 1507.07090430381 -1036.2105334626567 1210.1510785587898C-1267.6301651252654 913.23125281377 -1340.7656152786496 625.3658155495775 -1279.1332809349049 253.9928437238782C-1217.50094659116 -117.38012810182136 -1055.2999762135175 -366.1895918466605 -740.3753286126818 -572.4391862045644C-425.4506810118462 -778.6887805624683 -357.4101927371221 -705.7928391115349 232.50502754910212 -736.0052091940662C822.4202478353263 -766.2175792765973 1980.353057414357 -1153.828435589483 2091.217728761199 -717.4585626007142C2202.08240010804 -281.08868961194537 1235.3922787046872 859.2646457560513 764.6554500139409 1358.5701811520275 "></path><path d="M2057.393231974061 -695.1094273594421C2166.0406098939657 -267.4669518304486 1218.6842909186794 850.079316830188 757.3621988017476 1339.398741518245C296.04010668481624 1828.7181662063012 210.72399477259205 1683.92604458935 -156.95281018721334 1653.6238111432317C-524.6296151470187 1623.3215776971133 -780.6952259759609 1484.929450206992 -1007.4864650053175 1193.9480209768722C-1234.2777040346741 902.9665917467523 -1305.9504451849907 620.8584632278439 -1245.5507575281208 256.9129508386584C-1185.151069871251 -107.03256155052713 -1026.1941189011613 -350.8658360204695 -717.5679642523422 -552.9904384912153C-408.9418096035233 -755.1150409619611 -342.26213109429364 -683.6770183400464 235.8547847862062 -713.285141020927C813.971700666706 -742.8932637018077 1948.745854054156 -1122.7519028884358 2057.393231974061 -695.1094273594421C2166.0406098939657 -267.4669518304486 1218.6842909186794 850.079316830188 757.3621988017476 1339.398741518245 "></path><path d="M2023.5689488099692 -672.7602005654356C2129.9990333029377 -253.84512249621753 1201.9765167557184 840.894079457059 750.069161212602 1320.2273934371965C298.1618056694854 1799.5607074173336 214.58683889832673 1657.7235270578708 -145.58635779699284 1628.0397065392244C-505.7595544923124 1598.355886020578 -756.5993365288272 1462.7880876629079 -978.7621829249316 1177.745054947688C-1200.9250293210362 892.7020222324691 -1271.135061468285 616.3512024588445 -1211.96802049829 259.83314950617296C-1152.8009795282949 -96.68490344649854 -997.088047965758 -335.5419886415441 -694.7603862689558 -533.5415992251318C-392.4327245721536 -731.5412098087196 -327.1138558284183 -661.5611060158235 239.20475564635694 -690.5649812950535C805.5233671211317 -719.5688565742835 1917.1388643170017 -1091.6752786346538 2023.5689488099692 -672.7602005654356C2129.9990333029377 -253.84512249621753 1201.9765167557184 840.894079457059 750.069161212602 1320.2273934371965 "></path><path d="M1989.7445435755658 -650.4109737714292C2093.957334641597 -240.22329316198648 1185.268620522445 831.7088420839302 742.776001553143 1301.056045356148C300.28338258384156 1770.4032486283654 218.44956095374891 1631.521009526392 -134.2200274770846 1602.4556019352167C-486.88961590791814 1573.390194344042 -732.5035691520059 1440.6467251188233 -950.0380229148582 1161.5420889185043C-1167.5724766777105 882.4374527181853 -1236.3197998218916 611.8439416898448 -1178.3854055387715 262.7533481736875C-1120.4510112556513 -86.33724534246994 -967.9820991006674 -320.2181412626187 -671.9529303558819 -514.0927599590484C-375.9237616110963 -707.967378655478 -311.9657026328555 -639.4451936916007 242.55460443619518 -667.84482156918C797.0749115052458 -696.2444494467593 1885.5317525095347 -1060.598654380872 1989.7445435755658 -650.4109737714292C2093.957334641597 -240.22329316198648 1185.268620522445 831.7088420839302 742.776001553143 1301.056045356148 "></path><path d="M1955.9202298938962 -628.061838530157C2057.915727532991 -226.6015553804898 1168.5608158419059 822.5235131580671 735.4829334464193 1281.8846057223654C302.40505105093234 1741.245698286663 222.31237456190547 1605.3184004421787 -122.85360560444224 1576.8714057784755C-468.01958577078994 1548.4244111147727 -708.4077102224502 1418.5052710220052 -921.3137713520504 1145.3390313365871C-1134.2198324816504 872.1727916511682 -1201.504446622764 607.3365893681112 -1144.8026990265187 265.67345528846795C-1088.1009514302734 -75.98967879117572 -938.8760586828423 -304.89438543642757 -649.1453828900735 -494.6440122456993C-359.4147070973045 -684.3936390549708 -296.8174578845583 -617.3293729201121 245.904544778768 -645.1247533960409C788.6265474420943 -672.9201338719696 1853.9247322548022 -1029.5221216798245 1955.9202298938962 -628.061838530157C2057.915727532991 -226.6015553804898 1168.5608158419059 822.5235131580671 735.4829334464193 1281.8846057223654 "></path><path d="M1922.095855177071 -605.712703288885C2021.8740593892285 -212.979817598993 1151.8529501262105 813.3381842322037 728.1898043045389 1262.7131660885825C304.5266584828671 1712.0881479449608 226.17512713490578 1579.115791357965 -111.48724476695588 1551.2872096217334C-449.149616668818 1523.4586278855022 -684.3119123280508 1396.3638169251872 -892.5895808243988 1129.1359737546686C-1100.8672493207469 861.9081305841505 -1166.6891544587925 602.8292370463776 -1111.2200535494221 268.5935624032479C-1055.7509526400518 -65.6421122398815 -909.7700793001736 -289.57062961023667 -626.3378964594215 -475.19526453235017C-342.9057136186693 -660.8198994544637 -281.66927417141756 -595.2135521486236 249.25442408618414 -622.4046852229017C780.1781223437856 -649.5958182971798 1822.3176509649134 -998.445588978777 1922.095855177071 -605.712703288885C2021.8740593892285 -212.979817598993 1151.8529501262105 813.3381842322037 728.1898043045389 1262.7131660885825 "></path><path d="M1888.2715109778237 -583.3635375300348C1985.8324217630443 -199.3580492999181 1135.1451149280933 804.152885823919 720.8967056802367 1243.5417569723777C306.64829643237977 1682.930628120837 230.03791022548444 1552.9132127913294 -100.12085341189186 1525.7030439825703C-430.2796170492679 1498.4928751738107 -660.2160839160732 1374.2223933459468 -863.865359779169 1112.9329466903291C-1067.514635642265 851.643500034711 -1131.873831777243 598.3219152422221 -1077.6373775547474 271.51370003560646C-1023.4009233322521 -55.294515171008925 -880.6640693999266 -274.2468432664675 -603.5303795111913 -455.7464863014229C-326.3966896224558 -637.2461293363783 -266.5210599406987 -573.097700859557 252.60433391117863 -599.6845865321844C771.729727763056 -626.271472204812 1790.7106001926031 -967.3690257601513 1888.2715109778237 -583.3635375300348C1985.8324217630443 -199.3580492999181 1135.1451149280933 804.152885823919 720.8967056802367 1243.5417569723777 "></path><path d="M1854.4471667785765 -561.0143717711845C1949.79078413686 -185.7362810008434 1118.4372797299761 794.9675874156337 713.6036070559344 1224.3703478561729C308.7699343818922 1653.7731082967125 233.90069331606287 1526.7106342246943 -88.75446205682738 1500.1188783434063C-411.40961742971785 1473.5271224621192 -636.1202555040958 1352.0809697667064 -835.1411387339394 1096.7299196259892C-1034.162021963783 841.3788694852715 -1097.0585090956934 593.8145934380664 -1044.0547015600728 274.4338376679648C-991.0508940244523 -44.946918102136806 -851.5580594996798 -258.9230569226984 -580.722862562961 -436.2977080704957C-309.8876656262423 -613.672359218293 -251.37284570997963 -550.9818495704903 255.95424373617334 -576.9644878414672C763.2813331823263 -602.947126112444 1759.1035494202924 -936.2924625415258 1854.4471667785765 -561.0143717711845C1949.79078413686 -185.7362810008434 1118.4372797299761 794.9675874156337 713.6036070559344 1224.3703478561729 "></path><path d="M1820.6228225793288 -538.6650839420219C1913.7491465106755 -172.11439063145588 1101.729444531859 785.7824110776612 706.3105084316321 1205.1990608102815C310.8915723314051 1624.615710542901 237.7634764066413 1500.5081777283717 -77.38807070176313 1474.5348347745562C-392.5396178101678 1448.5614918207398 -612.0244270921182 1329.939668257779 -806.4169176887096 1080.5270146319617C-1000.8094082853011 831.1143610061447 -1062.243186414144 589.3073937042234 -1010.4720255653982 277.3540973706358C-958.7008647166525 -34.59919896295173 -822.4520495994328 -243.59914850861674 -557.9153456147308 -416.8488077692559C-293.3786416300288 -590.0984670298952 -236.22463147926055 -528.8658762111112 259.3041535611678 -554.2442670804375C754.8329386015957 -579.6226579497636 1727.4964986479818 -905.2157772525877 1820.6228225793288 -538.6650839420219C1913.7491465106755 -172.11439063145588 1101.729444531859 785.7824110776612 706.3105084316321 1205.1990608102815 "></path><path d="M1786.798447862503 -516.3160707710622C1877.7074783669136 -158.4927749202718 1085.0215788161636 776.5969600814853 699.0173792897517 1186.027499106186C313.0131797633396 1595.458038130886 241.6262289796416 1474.3054465738455 -66.021709864277 1448.9505165475016C-373.6696487081957 1423.5955865211577 -587.9286291977189 1307.7980920906475 -777.6927271610582 1064.3238349797311C-967.4568251243974 820.8495778688145 -1027.4278942501724 584.7999193121768 -976.8893800883017 280.2740824151035C-926.3508659264309 -24.25175448197001 -793.346070216764 -228.27551475273822 -535.1078591840787 -397.4001821262193C-276.86964815139345 -566.5248494997006 -221.0764477661196 -506.75017750993527 262.6540328685842 -531.5243209776108C746.384513503288 -556.2984644452864 1695.8894173580934 -874.1393666218527 1786.798447862503 -516.3160707710622C1877.7074783669136 -158.4927749202718 1085.0215788161636 776.5969600814853 699.0173792897517 1186.027499106186 "></path><path d="M1752.974134180834 -493.9667524243214C1841.665871258307 -144.87085403330627 1068.313774135625 767.4118142610912 691.7243111830276 1166.8562425778719C315.1348482304304 1566.3006708946527 245.4890425877984 1448.1030205951006 -54.65528799163462 1423.3665034962291C-354.7996185710674 1398.6299863973568 -563.8327702681631 1285.6568210992982 -748.9684755982503 1048.1209605032818C-934.1041809283374 810.5850999072659 -992.6125410510448 580.292750095912 -943.3066735760489 283.19437263535247C-894.0008061010531 -13.90400482520704 -764.240029798939 -212.95157582107845 -512.3003117182705 -377.95125130740144C-260.3605936376018 -542.9509267937246 -205.9282030178224 -484.634173632978 266.003973211157 -508.80406969900287C737.9361494401364 -532.9739657650279 1664.2823971033608 -843.0626508153365 1752.974134180834 -493.9667524243214C1841.665871258307 -144.87085403330627 1068.313774135625 767.4118142610912 691.7243111830276 1166.8562425778719 "></path><path d="M1719.149606876118 -471.6177087357837C1805.6240505266546 -131.24920780454386 1051.6057558320385 758.2263937824932 684.4310294532565 1147.6847113913545C317.2563030744743 1537.1430290002163 249.35164257290808 1421.900319958153 -43.28907974203912 1397.7822157867527C-335.9298020569861 1373.6641116153523 -539.7371249616544 1263.5152754497453 -720.2444376584893 1031.9178113686296C-900.7517503553242 800.3203472875139 -957.797401474964 575.7853062214438 -909.724180686843 286.1143881973985C-861.650959898722 -3.5565298266471927 -735.1342030041608 -197.6279115476218 -489.49297787550904 -358.5025951467868C-243.85175274685707 -519.3772787459518 -190.7801718925723 -462.51844441422384 269.3536999306825 -486.08409307859813C729.4875717539373 -509.64974174297254 1632.6751632255814 -811.9862096670233 1719.149606876118 -471.6177087357837C1805.6240505266546 -131.24920780454386 1051.6057558320385 758.2263937824932 684.4310294532565 1147.6847113913545 "></path><path d="M1685.325445782339 -449.2685429769334C1769.5825960059387 -117.62743950546906 1034.8981037393905 749.0410953742082 677.138113934423 1128.5133022751502C319.3781241294557 1507.985509176092 253.21460876895526 1395.6977413915174 -31.92250528150589 1372.1980501475891C-317.05961933196727 1348.6983589036604 -515.6411134442081 1241.373851870505 -691.5200335077909 1015.7147843042899C-867.3989535713736 790.0557167380744 -922.9818956879457 571.2779844172883 -876.1413215866996 289.0345258297566C-829.3007474854535 6.791067242225154 -706.0280099984452 -182.30412520385266 -466.68527782181013 -339.05381691585967C-227.34254564517505 -495.80350862786656 -175.6317745563847 -440.4025931251572 272.70379286114576 -463.3639943878809C721.0393602786762 -486.3253956506046 1601.0682955587395 -780.9096464483978 1685.325445782339 -449.2685429769334C1769.5825960059387 -117.62743950546906 1034.8981037393905 749.0410953742082 677.138113934423 1128.5133022751502 "></path><path d="M1651.5009489952008 -426.919316182927C1733.540805791864 -104.005610171238 1018.1901159533827 739.8558580010795 669.8448627222301 1109.341954194102C321.49960949107776 1478.8280503871242 257.07723927164307 1369.495223860039 -20.556266514332265 1346.6139455435818C-298.1897723003077 1323.7326672271247 -491.5454376201212 1219.2324893264213 -662.7959650504519 999.5118182751062C-834.0464924807824 779.7911472237913 -888.1667255942867 566.770723648289 -842.5587981799156 291.9547244972714C-796.9508707655443 17.13872534625375 -676.9221526860889 -166.98027782492727 -443.87791346147037 -319.60497764977606C-210.83367423685206 -472.22967747462496 -160.48371291355625 -418.2866808009343 276.05355009824984 -440.6438346620074C712.5908131100557 -463.0009885230805 1569.4610921985382 -749.833022194616 1651.5009489952008 -426.919316182927C1733.540805791864 -104.005610171238 1018.1901159533827 739.8558580010795 669.8448627222301 1109.341954194102 "></path><path d="M1617.6767573838442 -404.57021145923295C1697.4993207535704 -90.38390290731945 1001.4824333431561 730.6704985576382 662.5519166858185 1090.170484042741C323.6214000284813 1449.670469527844 260.94017495011235 1343.2925842582472 -9.189722571377388 1321.029718869262C-279.319620092867 1298.766853480277 -467.44945662025316 1197.0910047120242 -634.0715914173315 983.30873017561C-800.6937262144099 769.5264556391953 -853.3512503248465 562.2633408089771 -808.9759695973503 294.8748010944737C-764.6006888698539 27.48626137996996 -647.8159901979514 -151.65655251631426 -421.0702439253496 -300.1562604540052C-194.32449765274794 -448.6559683916959 -145.33534609494654 -396.1708905470239 279.40361251113495 -417.9237970064464C704.1425711172164 -439.67670346586885 1537.8541940141185 -718.7565200111466 1617.6767573838442 -404.57021145923295C1697.4993207535704 -90.38390290731945 1001.4824333431561 730.6704985576382 662.5519166858185 1090.170484042741 "></path><path d="M1583.852382667019 -382.2209236300703C1661.457652609808 -76.76201253793204 984.7745676274608 721.4853222196657 655.2587875439381 1070.999196996849C325.7430074604156 1420.5130717740321 264.80292752311266 1317.0901277619241 2.176638266108739 1295.445675300411C-260.44965099089495 1273.801222838898 -443.35365872585373 1174.9497032030968 -605.3474008896799 967.1058251815828C-767.3411430535061 759.2619471600685 -818.5359581608751 557.7561410751341 -775.3933241202537 297.7950607971443C-732.2506900796322 37.83398051915481 -618.7100108152825 -136.33264410223273 -398.26275749469755 -280.70736015276543C-177.81550417411256 -425.08207620329813 -130.1871623818056 -374.0549171876447 282.7534918185513 -395.20357624541657C695.6941460189082 -416.3522353031885 1506.2471127242297 -687.6798347222085 1583.852382667019 -382.2209236300703C1661.457652609808 -76.76201253793204 984.7745676274608 721.4853222196657 655.2587875439381 1070.999196996849 "></path><path d="M1550.0280079501936 -359.87187994153254C1625.4159844660458 -63.14036630916962 968.0667019117654 712.299901741068 647.9656584020577 1051.8276658103316C327.8646148923501 1391.3554298795952 268.66568009611296 1290.887427124976 13.542999103594866 1269.861387590935C-241.5796818889229 1248.8353480568935 -419.2578608314543 1152.808157553544 -576.6232103620284 950.9026760469303C-733.9885598926023 748.9971945403165 -783.7206659969037 553.2486972006659 -741.8106786431572 300.71507635919033C-699.9006912894107 48.18145551771465 -589.6040314326137 -121.00897982877598 -375.4552710640455 -261.2587039921507C-161.3065106954773 -401.5084281555253 -115.03897866866475 -351.93918796889056 286.10337112596767 -372.48359962501183C687.2457209206002 -393.0280112811331 1474.640031434341 -656.6033935738953 1550.0280079501936 -359.87187994153254C1625.4159844660458 -63.14036630916962 968.0667019117654 712.299901741068 647.9656584020577 1051.8276658103316 "></path><path d="M1516.203694268524 -337.5226836651042C1589.3743773574397 -49.518567492516695 951.3588972312264 703.1146338503611 640.6725902953335 1032.6562872117051C329.98628335944113 1362.1979405730494 272.52849370426975 1264.6848790759195 24.90942097623747 1244.27725246935C-222.7096517517947 1223.8696258627801 -395.16200190189875 1130.6667644918818 -547.8989587992205 934.6996795001685C-700.6359156965424 738.7325945084553 -748.905312797776 548.7414059140883 -708.2279721309044 303.6352445091268C-667.5506314640328 58.529083104165124 -560.4979910147888 -105.68516296742882 -352.64772359823723 -241.80989524364531C-144.79745618168556 -377.93462751986186 -99.89073392036767 -329.8233061622459 289.4533114685403 -349.7634704167165C678.7973568574484 -369.70363467118705 1443.0330111796084 -625.5267998376917 1516.203694268524 -337.5226836651042C1589.3743773574397 -49.518567492516695 951.3588972312264 703.1146338503611 640.6725902953335 1032.6562872117051 "></path><path d="M1482.3791974813857 -315.17342635351963C1553.3325871433644 -35.89670764070752 934.6509094452185 693.9294269948102 633.3793390831406 1013.4849696482349C332.10776872106294 1333.0405123016599 276.39112420695756 1238.4823920620183 36.2756597434111 1218.6931783829207C-203.83980472013525 1198.9039647038228 -371.0663260778118 1108.525432465376 -519.1748903418815 918.4967439885631C-667.2834546059512 728.4680555117502 -714.090142704117 544.234175662667 -674.6454487241203 306.5554736942195C-635.2007547441236 68.87677172577185 -531.3921337024325 -90.36128507092519 -329.8403592378976 -222.3610254599837C-128.2885847733628 -354.3607658490422 -84.74267227753933 -307.70736332044487 292.80306870564436 -327.04328017326486C670.3488096888277 -346.3791970260848 1411.4258078194075 -594.4501450663317 1482.3791974813857 -315.17342635351963C1553.3325871433644 -35.89670764070752 934.6509094452185 693.9294269948102 633.3793390831406 1013.4849696482349 "></path><path d="M1448.5550058700292 -292.8242300770913C1517.2911021050709 -22.27490882405459 917.943226834992 684.7441591041033 626.0863930467292 994.3135910496085C334.22955925846645 1303.8830229951136 280.2540598854264 1212.2798440129611 47.642203686365974 1193.1090432613353C-184.96965251269444 1173.9382425097092 -346.97034507794365 1086.3840394037138 -490.45051670876114 902.2937474418013C-633.9306883395786 718.2034554798888 -679.2746674346769 539.7268843760899 -641.062620141555 309.47564184415614C-602.8505728484333 79.22439931222243 -502.28597121429493 -75.03746820957792 -307.0326897017768 -202.91221671147832C-111.77940818925867 -330.7869652133788 -69.59430545892963 -285.5914815138001 296.1531311185295 -304.32315096496944C661.9005676959882 -323.0548204161388 1379.8189096349874 -563.373551330128 1448.5550058700292 -292.8242300770913C1517.2911021050709 -22.27490882405459 917.943226834992 684.7441591041033 626.0863930467292 994.3135910496085 "></path><path d="M1414.7305090828913 -270.4751558709754C1481.249311890996 -8.653232077714165 901.2352390489841 675.5587691430837 618.7931418345363 975.1420903806693C336.3510446200885 1274.725411618255 284.1166903881144 1186.0771738935912 59.00844245353983 1167.524786069437C-166.099805481035 1148.9723982452829 -322.87466925385684 1064.2425242717393 -461.7264482514221 886.090628824727C-600.5782272489873 707.9387333777149 -644.4594973410179 535.2194710191995 -607.480096734771 312.39568792377986C-570.5006961285242 89.57190482836029 -473.1801139019386 -59.71377341854327 -284.22532534143716 -183.46353003328556C-95.2705367809358 -307.21328664802786 -54.44624381610129 -263.4757217774678 299.50288835563333 -281.6031438269866C653.452020527368 -299.7305658765053 1348.2117062747866 -532.2970796642367 1414.7305090828913 -270.4751558709754C1481.249311890996 -8.653232077714165 901.2352390489841 675.5587691430837 618.7931418345363 975.1420903806693 "></path><path d="M1380.9062869539566 -248.12605114728143C1445.207796335124 4.9684751862045005 884.5275259211796 666.3734096996425 611.5001652805465 955.9706202293085C338.47280463991365 1245.5678307589747 287.97959554900535 1159.8745342917996 70.37495587891658 1141.9405593951171C-147.22968379117242 1124.006584498435 -298.7787187715667 1042.1010396573427 -433.0021051358799 869.887540725231C-567.225491500193 697.6740417931192 -609.6440525891559 530.7120881798878 -573.8972986697838 315.31576452098216C-538.1505447504119 99.9194408620765 -444.0739819313792 -44.390048109930376 -261.4176863228945 -164.01481283751457C-78.7613907144098 -283.6395775650988 -39.297907515069824 -241.35993152355746 302.8529202509403 -258.88310617142554C645.0037480169503 -276.40628081929367 1316.6047775727884 -501.22057748076736 1380.9062869539566 -248.12605114728143C1445.207796335124 4.9684751862045005 884.5275259211796 666.3734096996425 611.5001652805465 955.9706202293085 "></path><path d="M1347.081820684396 -225.77682435327495C1409.1660366386277 18.590304520435666 867.8195686527499 657.1881723265137 604.2069445859318 936.7992721482601C340.5943205191138 1216.410371970007 291.8422565692713 1133.6720167603205 81.74122516366833 1116.3564547911099C-128.35980624193462 1099.0408928218994 -274.68301242990174 1019.9596771132585 -404.2780061609627 853.6845746960473C-533.8729998920237 687.4094722788361 -574.8288519779188 526.2048274108884 -540.3147447454216 318.2359631884967C-505.8006375129246 110.2670989661051 -414.96809410144476 -29.06620073100487 -238.61029144497684 -144.56597357143107C-62.2524887885088 -260.0657464118573 -24.14981535466336 -219.24401919933456 306.2027080056223 -236.16294644555205C636.5552313659077 -253.08187369176954 1284.9976047301652 -470.14395322698556 1347.081820684396 -225.77682435327495C1409.1660366386277 18.590304520435666 867.8195686527499 657.1881723265137 604.2069445859318 936.7992721482601 "></path><path d="M1313.2575985554613 -203.42762807684664C1373.1245210827556 32.21210333708859 851.111855524945 648.0029044358066 596.913968031942 917.6278935496339C342.71608053893897 1187.2528826634607 295.7051617301622 1107.4694687112633 93.10773858904508 1090.7723196695247C-109.48968455207205 1074.075170627786 -250.5870619476118 997.8182840515965 -375.55366304542054 837.4815781492855C-500.52026414322927 677.1448722469747 -540.0134072260568 521.697536124311 -506.7319466804346 321.15613133843317C-473.45048613481237 120.61472655255557 -385.8619621308854 -13.742383869657715 -215.80265242643418 -125.1171648229257C-45.7433427219828 -236.4919457761938 -9.001479053631783 -197.12813739268984 309.5527399009293 -213.4428172372567C628.1069588554906 -229.75749708182354 1253.390676028167 -439.0673594907818 1313.2575985554613 -203.42762807684664C1373.1245210827556 32.21210333708859 851.111855524945 648.0029044358066 596.913968031942 917.6278935496339 "></path><path d="M1279.4331322859016 -181.0784623179964C1337.0827613862593 45.833871636163394 834.4038982565155 638.8176060275218 589.6207473373274 898.4564844334293C344.8375964181391 1158.0953628393368 299.56782275042815 1081.266890144628 104.47400787379684 1065.1881540303611C-90.61980700283448 1049.1094179160941 -226.49135560594675 975.6768604723563 -346.82956407050335 821.2785510849458C-467.16777253505995 666.8802416975352 -505.1982066148197 517.1902143201553 -473.1493927560724 324.0762689707916C-441.1005788973251 130.9623236214279 -356.756074300951 1.5814024741115418 -192.9952575485164 -105.66838659199846C-29.2344407960818 -212.9181756581085 6.146613106774794 -175.01228610362318 312.90252765561127 -190.7227185465394C619.658442204448 -206.4331509894556 1221.7835031855439 -407.9907962721562 1279.4331322859016 -181.0784623179964C1337.0827613862593 45.833871636163394 834.4038982565155 638.8176060275218 589.6207473373274 898.4564844334293 "></path><path d="M1245.6087880866544 -158.72926604156805C1301.0411237600747 59.45567045281632 817.6960630583983 629.6323381368147 582.3276487130252 879.2851058348028C346.9592343676518 1128.9378735327907 303.4306058410066 1055.064342095571 115.8403992288612 1039.6040189087757C-71.7498073832844 1024.1436957219805 -202.3955271939692 953.5354674106941 -318.1053430252736 805.075554538184C-433.8151588565781 656.615641665674 -470.38288393327014 512.6829230335779 -439.56671676139774 326.99643712072816C-408.7505495895253 141.30995120787838 -327.6500644007041 16.90521933545881 -170.18774060028613 -86.2195778434932C-12.725416799868412 -189.3443750224451 21.294827337493643 -152.8964042969784 316.25243748060575 -168.00258933824404C611.2100476237179 -183.1087743795096 1190.1764524132332 -376.9142025359525 1245.6087880866544 -158.72926604156805C1301.0411237600747 59.45567045281632 817.6960630583983 629.6323381368147 582.3276487130252 879.2851058348028 "></path><path d="M1211.7844438874065 -136.3800697651397C1264.999486133891 73.07746926946936 800.9882278602811 620.4470702461076 575.0345500887229 860.1137272361764C349.08087231716445 1099.780384226245 307.29338893158524 1028.8617940465135 127.20679058392545 1014.0198837871903C-52.879807763734334 999.1779735278672 -178.29969878199176 931.394074349032 -289.38112198004393 788.8725579914221C-400.4625451780962 646.3510416338127 -435.56756125172063 508.17563174700035 -405.98404076672307 329.9166052706646C-376.40052028172556 151.65757879432886 -298.54405450045715 32.22903619680608 -147.38022365205597 -66.77076909498783C3.7836071963450877 -165.77057438678168 36.44304156821272 -130.78052249033362 319.60234730560023 -145.28246012994862C602.7616530429877 -159.7843977695636 1158.5694016409227 -345.83760879974875 1211.7844438874065 -136.3800697651397C1264.999486133891 73.07746926946936 800.9882278602811 620.4470702461076 575.0345500887229 860.1137272361764 "></path><path d="M1177.960099688159 -114.03096504144571C1228.9578485077063 86.69917653338791 784.2803926621639 611.2617108026664 567.7414514644206 840.9422570848155C351.2025102666771 1070.6228033669643 311.1561720221637 1002.6591544447222 138.57318193898982 988.4356571128706C-34.009808144184035 974.2121597810192 -154.2038703700141 909.2525897346354 -260.65690093481425 772.6694698919264C-367.10993149961433 636.0863500492169 -400.7522385701711 503.6682489076884 -372.4013647720484 332.8366818678668C-344.0504909739258 162.00511482804495 -269.4380446002102 47.552761505419085 -124.57270670382582 -47.32205189921683C20.2926311925587 -142.19686530385258 51.5912557989318 -108.66473223642322 322.95225713059494 -122.56242247438763C594.3132584622581 -136.460112712352 1126.962350868612 -314.76110661627945 1177.960099688159 -114.03096504144571C1228.9578485077063 86.69917653338791 784.2803926621639 611.2617108026664 567.7414514644206 840.9422570848155 "></path><path d="M1144.1357554889119 -91.68176876501741C1192.9162108815221 100.32097535004095 767.5725574640467 602.0764429119595 560.4483528401183 821.7708784861888C353.32414821618977 1041.4653140604185 315.01895511274233 976.4566063956647 149.93957329405407 962.8515219912852C-15.139808524633963 949.2464375869054 -130.10804195803667 887.1111966729734 -231.9326798895845 756.4664733451646C-333.75731782113246 625.8217500173555 -365.9369158886215 499.16095762111104 -338.8186887773738 335.75685001780323C-311.70046166612605 172.35274241449554 -240.3320346999633 62.87657836676624 -101.76518975559566 -27.87324315071146C36.80165518877209 -118.62306466818916 66.73947002965065 -86.5488504297785 326.3021669555892 -99.84229326609221C585.864863881528 -113.13573610240599 1095.3553000963016 -283.68451288007566 1144.1357554889119 -91.68176876501741C1192.9162108815221 100.32097535004095 767.5725574640467 602.0764429119595 560.4483528401183 821.7708784861888 "></path><path d="M1110.3114112896644 -69.33260300616718C1156.8745732553377 113.94274364911576 750.8647222659295 592.8911445036742 553.1552542158161 802.5994693699845C355.44578616570243 1012.3077942362943 318.88173820332065 950.2540278290296 161.30596464911844 937.2673563521219C3.7301910949161083 924.2806848752136 -106.01221354605912 864.9697730937332 -203.20845884435482 740.2634462808246C-300.4047041426506 615.557119467916 -331.12159320707195 494.65363581695544 -305.2360127826991 338.67698765016166C-279.35043235832626 182.70033948336788 -211.2260247997164 78.20036471053538 -78.95767280736538 -8.424464919784214C53.31067918498559 -95.04929455010387 81.88768426036972 -64.43299914071184 329.6520767805839 -77.12219457537498C577.4164693007979 -89.81139001003805 1063.7482493239909 -252.6079496614501 1110.3114112896644 -69.33260300616718C1156.8745732553377 113.94274364911576 750.8647222659295 592.8911445036742 553.1552542158161 802.5994693699845 "></path><path d="M1076.487067090417 -46.98340672973882C1120.8329356291536 127.56454246576868 734.1568870678125 583.7058766129676 545.8621555915138 783.4280907713578C357.5674241152152 983.1503049297482 322.7445212938992 924.0514797799722 172.6723560041827 911.6832212305364C22.600190714466294 899.3149626811003 -81.91638513408157 842.828380032071 -174.48423779912514 724.0604497340628C-267.0520904641687 605.2925194360548 -296.3062705255224 490.14634453037786 -271.65333678802443 341.5971558000981C-247.00040305052653 193.04796706981836 -182.12001489946948 93.52418157188265 -56.150155859135225 11.024343828721157C69.81970318119909 -71.47549391444045 97.0358984910888 -42.31711733406712 333.0019866055785 -54.40206536707956C568.9680747200682 -66.48701340009205 1032.1411985516804 -221.53135592524637 1076.487067090417 -46.98340672973882C1120.8329356291536 127.56454246576868 734.1568870678125 583.7058766129676 545.8621555915138 783.4280907713578 "></path><path d="M1042.6626923735914 -24.634240970888584C1084.7912674853912 141.1863107648436 717.4490213521171 574.5205782046824 538.5690264496334 764.2566816551532C359.68903154714974 953.9927851056241 326.6072738668995 897.8489012133368 184.03871684166893 886.0990555913727C41.47015981643824 874.3492099694083 -57.820587239682254 820.6869564528306 -145.76004727147358 707.8574226697231C-233.69950730326497 595.0278888866153 -261.49097836155096 485.63902272622227 -238.07069131092788 344.5172934324564C-214.65040426030487 203.3955641386907 -153.01403551680073 108.8479679156518 -33.34266942848319 30.47312205964829C86.32869665983435 -47.90172379635516 112.18408220422953 -20.201266045000466 336.35186591299475 -31.681966676362322C560.51964962176 -43.16266730772418 1000.5341172617916 -190.45479270662076 1042.6626923735914 -24.634240970888584C1084.7912674853912 141.1863107648436 717.4490213521171 574.5205782046824 538.5690264496334 764.2566816551532 "></path><path d="M1008.8384092095002 -2.2851057296164754C1048.7496908943633 154.80804854634027 700.7412471891562 565.3352492788191 531.2759888604874 745.0852420213705C361.81073053181876 924.835234763922 330.4701179926343 871.6462921291236 195.40516923188943 860.514859434631C60.340220471144676 849.3834267401385 -33.724697792548454 798.5455023560121 -117.03576519108765 691.654365087805C-200.34683258962684 584.7632278195977 -226.67559464484515 481.13167040448855 -204.48795428109702 347.43740054723685C-182.30031391734883 213.74313068998504 -123.90796458139755 124.17172374184292 -10.535091445096668 49.92186977299741C102.8377816912041 -24.327984195847932 127.33235747010485 1.9145547264880634 339.7018367731456 -8.96189850322321C552.0713160761863 -19.838351732934427 968.9271275246374 -159.37826000557328 1008.8384092095002 -2.2851057296164754C1048.7496908943633 154.80804854634027 700.7412471891562 565.3352492788191 531.2759888604874 745.0852420213705 "></path><path d="M975.0140039750968 20.064090546811826C1012.7079922330229 168.4298473629933 684.0333509558827 556.1499813881121 523.9828292010288 725.9138634227438C363.93230744617506 895.6777454573757 334.3328400480565 845.4437440800662 206.77149955179743 834.9307243130456C79.2101590555385 824.4177045460249 -9.628930415727154 776.4041092943503 -88.31160518101422 675.4513685410434C-166.99427994630122 574.4986277877364 -191.86033299845184 476.6243791179111 -170.9053393215786 350.3575686971733C-149.95034564470535 224.0907582764355 -94.80201571630687 139.4955406031902 12.27236446797724 69.37067852150278C119.34674465226135 -0.754183560184515 142.48051066566768 24.030436533132843 343.05168556298383 13.758230705072208C543.6228604603002 3.486024877011573 937.3200157171705 -128.30166626936955 975.0140039750968 20.064090546811826C1012.7079922330229 168.4298473629933 684.0333509558827 556.1499813881121 523.9828292010288 725.9138634227438 "></path><path d="M941.1896597758491 42.41325630566206C976.6663546068385 182.05161566206812 667.3255157577655 546.964682979827 516.6897305767266 706.7424543065395C366.0539453956877 866.5202256332518 338.195623138635 819.241165513431 218.1378909068618 809.3465586738821C98.08015867508857 799.4519518343332 14.466897996250282 754.2626857151099 -59.587384135784475 659.2483414767034C-133.64166626781935 564.233997238297 -157.04501031690228 472.11705731375537 -137.32266332690392 353.2777063295316C-117.60031633690556 234.43835534530785 -65.69600581606 154.81932694695934 35.0798814162074 88.81945675243003C135.85576864847485 22.819586557900777 157.62872489638653 46.14628782219944 346.40159538797843 36.478329395789444C535.1744658795701 26.81037096937945 905.71296494486 -97.225103050744 941.1896597758491 42.41325630566206C976.6663546068385 182.05161566206812 667.3255157577655 546.964682979827 516.6897305767266 706.7424543065395 "></path><path d="M907.3653155766019 64.7624220645123C940.6247169806543 195.67338396114292 650.6176805596483 537.7793845715419 509.3966319524244 687.5710451903346C368.1755833452005 837.3627058091274 342.05840622921346 793.0385869467955 229.50428226192616 783.7623930347186C116.95015829463875 774.4861991226414 38.56272640822783 732.1212621358695 -30.863163090554792 643.0453144123635C-100.28905258933747 553.9693666888575 -122.22968763535272 467.6097355095998 -103.73998733222925 356.19784396188993C-85.25028702910583 244.7859524141802 -36.58999591581306 170.14311329072837 57.88739836443767 108.26823498335722C152.36479264468835 46.39335667598607 172.7769391271056 68.2621391112661 349.7515052129729 59.19842808650674C526.7260712988402 50.134717061747324 874.1059141725495 -66.14853983211833 907.3653155766019 64.7624220645123C940.6247169806543 195.67338396114292 650.6176805596483 537.7793845715419 509.3966319524244 687.5710451903346 "></path><path d="M873.5409713773543 87.11158782336253C904.5830793544701 209.29515226021783 633.9098453615311 528.5940861632569 502.1035333281221 668.3996360741301C370.29722129471315 808.2051859850035 345.9211893197919 766.8360083801604 240.87067361699042 758.178227395555C135.82015791418894 749.5204464109497 62.65855482020538 709.9798385566291 -2.138942045325109 626.8422873480237C-66.9364389108556 543.7047361394181 -87.41436495380316 463.1024137054442 -70.15731133755463 359.11798159424836C-52.90025772130605 255.13354948305255 -7.483986015566131 185.46689963449762 80.69491531266783 127.71701321428446C168.87381664090185 69.96712679407136 187.92515335782457 90.37799040033269 353.1014150379674 81.91852677722397C518.2776767181101 73.45906315411526 842.4988634002389 -35.07197661349278 873.5409713773543 87.11158782336253C904.5830793544701 209.29515226021783 633.9098453615311 528.5940861632569 502.1035333281221 668.3996360741301 "></path><path d="M839.716627178107 109.46078409979089C868.5414417282859 222.91695107687076 617.2020101634139 519.40881827255 494.81043470381996 649.2282574755037C372.4188592442258 779.0476966784574 349.7839724103703 740.6334603311029 252.23706497205467 732.5940922739696C154.690157533739 724.5547242168361 86.75438323218287 687.8384454949672 26.585278999904574 610.639290801262C-33.58382523237373 533.4401361075567 -52.5990422722536 458.5951224188667 -36.57463534287996 362.0381497441849C-20.55022841350626 265.481177069503 21.622023884680743 200.79071649584483 103.5024322608981 147.16582196278983C185.38284063711535 93.54092742973478 203.07336758854365 112.49387220697747 356.4513248629619 104.63865598551934C509.82928213738023 96.78343976406126 810.8918126279282 -3.995382877289046 839.716627178107 109.46078409979089C868.5414417282859 222.91695107687076 617.2020101634139 519.40881827255 494.81043470381996 649.2282574755037 "></path><path d="M805.8922829788594 131.80991934106294C832.4998041021017 236.53868885836755 600.4941749652968 510.2234893466866 487.5173360795177 630.056817841721C374.5404971937385 749.8901463367552 353.64675550094887 714.4308512468896 263.6034563271189 707.009896117228C173.56015715328908 699.5889409875664 110.85021164416037 665.6969913981488 55.309500045134314 594.4362332193439C-0.23121155389185333 523.1754750405391 -17.783719590704038 454.087770097133 -2.9919593482052846 364.9582568589651C11.799800894293469 275.82874362079724 50.728033784927675 216.11447232203585 126.30994920912826 166.6145696761389C201.89186463332885 117.114667030242 218.2215818192626 134.609692978466 359.80123468795637 127.3587241586585C501.3808875566501 120.107755338851 779.2847618556175 27.081149823758437 805.8922829788594 131.80991934106294C832.4998041021017 236.53868885836755 600.4941749652968 510.2234893466866 487.5173360795177 630.056817841721 "></path><path d="M772.067908262034 154.1591156174913C796.4581359583392 250.16048767502048 583.7863092496015 501.03822145597974 480.2242069376373 610.8854392430944C376.662104625673 720.7326570302092 357.5095080739493 688.2283031978324 274.96981716460516 681.4257609956426C192.43012625526114 674.6232187934527 134.9460095385598 643.5555983364867 84.03369057278587 578.2332366725823C33.121371607011895 512.9108750086777 17.031572573267397 449.5804788105555 30.590686128891264 367.87842500890156C44.14979968451513 286.1763712072477 79.83401316759648 231.43828918338312 149.1174356397803 186.06337842464427C218.40085811196423 140.68846766590542 233.36976553240345 156.72557478511078 363.1511139953727 150.07885336695387C492.9324624583421 143.432131948797 747.6776805657289 58.15774355996217 772.067908262034 154.1591156174913C796.4581359583392 250.16048767502048 583.7863092496015 501.03822145597974 480.2242069376373 610.8854392430944 "></path><path d="M738.2435335452085 176.50828137634153C760.4164678145767 263.7822559740953 567.0784435339062 491.85292304769473 472.9310777957569 591.7140301268898C378.78371205760754 691.5751372060851 361.3722606469496 662.025724631197 286.3361780020914 655.8415953564792C211.3000953572332 649.6574660817611 159.04180743295922 621.4141747572464 112.75788110043743 562.0302096082423C66.47395476791564 502.64624445923835 51.84686473723883 445.0731570063999 64.17333160598776 370.79856264126C76.49979847473674 296.52396827612006 108.93999255026523 246.76207552715226 171.9249220704324 205.51215665557152C234.9098515905996 164.2622377839907 248.5179492455444 178.84142607417738 366.5009933027893 172.79895205767116C484.4840373600341 166.75647804116488 716.0705992758403 89.23430677858778 738.2435335452085 176.50828137634153C760.4164678145767 263.7822559740953 567.0784435339062 491.85292304769473 472.9310777957569 591.7140301268898 "></path><path d="M704.4191893459611 198.85746239398082C724.3748301883926 277.4040395319592 550.370608335789 482.66763989819856 465.6379791714546 572.5426362694743C380.9053500071203 662.4176326407501 365.23504373752803 635.8231613233509 297.70256935715565 630.2574449761046C230.17009497678328 624.6917286288583 183.1376358449367 599.2727664367951 141.4821021456671 545.8271978026916C99.82656844639752 492.3816291685879 86.66218741878839 440.5658504610333 97.75600760066243 373.7187155324075C108.84982778253652 306.8715806037816 138.04600245051216 262.0858771297105 194.7324390186626 224.96095014528777C251.418875586813 187.83602316086507 263.66616347626336 200.9572926220331 369.8509031277838 195.51906600717746C476.0356427793041 190.08083939232188 684.4635485035296 120.3108852560024 704.4191893459611 198.85746239398082C724.3748301883926 277.4040395319592 550.370608335789 482.66763989819856 465.6379791714546 572.5426362694743 "></path><path d="M670.5948451467136 221.20662815283106C688.3331925622083 291.02580783103406 533.6627731376718 473.48234148991355 458.34488054715234 553.3712271532697C383.02698795663287 633.2601128166259 369.0978268281066 609.6205827567155 309.0689607122199 604.673279336941C249.04009459633335 599.7259759171666 207.2334642569142 577.131342857555 170.2063231908968 529.6241707383517C133.1791821248794 482.1169986191485 121.4775101003379 436.0585286568777 131.3386835953371 376.6388531647658C141.19985709033625 317.2191776726539 167.1520123507591 277.40966347347967 217.53995596689276 244.409728376215C267.9278995830265 211.40979327895036 278.8143777069823 223.0731439110997 373.2008129527783 218.23916469789475C467.5872481985741 213.40518548468975 652.8564977312191 151.387448474628 670.5948451467136 221.20662815283106C688.3331925622083 291.02580783103406 533.6627731376718 473.48234148991355 458.34488054715234 553.3712271532697 "></path><path d="M636.7704704298881 243.55579391168123C652.291524418446 304.6475761301089 516.9549074219765 464.29704308162843 451.05175140527194 534.199818037065C385.1485953885675 604.1025929925017 372.9605794011069 583.4180041900802 320.43532154970615 579.0891136977775C267.9100636983054 574.7602232054749 231.32926215131363 554.9899192783146 198.9305137185484 513.4211436740118C166.53176528578314 471.852368069709 156.29280226430933 431.5512068527221 164.92132907243365 379.5589907971241C173.5498558805579 327.5667747415263 196.25799173342784 292.7334498172488 240.34744239754485 263.8585066071422C284.43689306166186 234.9835633970357 293.9625614201232 245.18899520016635 376.55069226019464 240.959263388612C459.138823100266 236.72953157705763 621.2494164413304 182.4640116932536 636.7704704298881 243.55579391168123C652.291524418446 304.6475761301089 516.9549074219765 464.29704308162843 451.05175140527194 534.199818037065 "></path><path d="M602.9461414894297 265.90497492932053C616.2499020510509 318.26935968797284 500.24708748264834 455.1117599321324 443.75866803975885 515.0284241796496C387.27024859686924 574.9450884271666 376.8233777504745 557.2154408822339 331.80172816355946 553.504963317403C286.78007857664454 549.7944857525722 255.42510582208018 532.8485109578635 227.65475002256716 497.218131868461C199.88439422305407 461.58775277905863 191.10814020464795 427.04390030735556 198.50402032589733 382.4791436882716C205.89990044714676 337.9143870691877 225.36401689246384 308.057251419807 263.15497460456413 283.3073000968585C300.9459323166644 258.55734877391006 309.1107909096313 267.30486174802206 379.9006173439782 263.67937733811834C450.69044377832506 260.05389292821457 589.6423809278087 213.54059017066828 602.9461414894297 265.90497492932053C616.2499020510509 318.26935968797284 500.24708748264834 455.1117599321324 443.75866803975885 515.0284241796496 "></path><path d="M569.1217515138152 288.25414068817076C580.2082186484993 331.89112798704764 483.53920650816406 445.92646152384737 436.4655236390894 495.8570150634449C389.3918407700147 545.7875686030425 380.68611506468574 531.0128623155986 343.16807374225664 527.9207976782395C305.65003241982754 524.8287330408805 279.52088845769055 510.7070873786232 256.37892529142965 481.01510480412117C233.23696212516876 451.32312222961923 225.92341710983032 422.53657850319996 232.08665054420482 385.39928132063C238.2498839785793 348.26198413806003 254.46998101634358 323.38103776357616 285.9624457764271 302.75607832778576C317.45491053651074 282.13111889199536 324.25895936398314 289.4207130370887 383.2504813926056 286.3994760288356C442.242003421228 283.37823902058244 558.0352843791311 244.6171533892939 569.1217515138152 288.25414068817076C580.2082186484993 331.89112798704764 483.53920650816406 445.92646152384737 436.4655236390894 495.8570150634449 "></path><path d="M535.2974225733568 310.60332170581006C544.1665962811041 345.51291154491156 466.8313865688359 436.7411783743513 429.17244027357617 476.6856212060294C391.51349397831643 516.6300640377075 384.5489134140533 504.8102990077523 354.53448035610995 502.33664729786506C324.5200472981667 499.8629955879778 303.6167321284571 488.565679058172 285.1031615954484 464.8120929985704C266.5895910624397 441.0585069389688 260.73875505016895 418.0292719578334 265.66934179766855 388.31943421177743C270.59992854516815 358.6095964657215 283.5760061753795 338.70483936613437 308.7699779834464 322.204871817502C333.96394979151324 305.7049042688697 339.40718885349116 311.5365795849444 386.60040647638914 309.1195899783419C433.79362409928706 306.7026003717394 526.4282488656095 275.69373186670856 535.2974225733568 310.60332170581006C544.1665962811041 345.51291154491156 466.8313865688359 436.7411783743513 429.17244027357617 476.6856212060294 "></path><path d="M501.4730631153203 332.9524874646603C508.1249433961309 359.1346798439864 450.12353611192964 427.5558799660662 421.8793263904849 457.5142120898248C393.6351166690401 487.4725442135833 388.4116812458427 478.60772044111695 365.9008564523852 476.7524816587015C343.39003165892774 474.8972428762861 327.7125452816456 466.42425547893174 313.827367381889 448.6090659342305C299.9421894821325 430.7938763895293 295.55406247292944 413.5219501536778 299.25200253355416 391.2395718441358C302.9499425941788 368.95719353459384 312.6820008168374 354.0286257099035 331.57747967288753 341.65365004842926C350.4729585289377 329.278674386955 354.5553878254211 333.65243087401103 389.95030104259456 331.83968866905917C425.345214259768 330.02694646410725 494.82118283450984 306.7702950853341 501.4730631153203 332.9524874646603C508.1249433961309 359.1346798439864 450.12353611192964 427.5558799660662 421.8793263904849 457.5142120898248 "></path><path d="M467.6487036572839 355.30165322351047C472.08329051115754 372.7564481430612 433.4156856550234 418.3705815577811 414.58621250739355 438.34280297362017C395.7567393597637 458.3150243894592 392.2744490776321 452.4051418744816 377.26723254866044 451.168316019538C362.2600160196888 449.9314901645944 351.808358434834 444.2828318996915 342.5515731683297 432.40603886989066C333.2947879018253 420.52924584008986 330.36936989568994 409.0146283495222 332.8346632694397 394.1597094764942C335.29995664318955 379.3047906034662 341.78799545829526 369.35241205367265 354.3849813623287 361.1024282793565C366.98196726636206 352.85244450504035 369.7035867973511 355.7682821630777 393.30019560880004 354.5597873597764C416.896804420249 353.3512925564752 463.2141168034102 337.8468583039597 467.6487036572839 355.30165322351047C472.08329051115754 372.7564481430612 433.4156856550234 418.3705815577811 414.58621250739355 438.34280297362017 "></path><path d="M433.8243594580365 377.65083424114977C436.0416528849733 386.37823170092514 416.70785045690627 409.18529840828506 407.29311388309134 419.1714091162046C397.8783773092764 429.15751982412417 396.1372321682106 426.20257856663534 388.63362390372475 425.58416563916353C381.13001563923893 424.9657527116917 375.90418684681157 422.14142357924027 371.2757942135594 416.20302706433984C366.6474015803072 410.26463054943946 365.1846925772395 404.5073218041556 366.4173392641144 397.0798623676416C367.6499859509893 389.65240293112765 370.89400535854213 384.67621365623086 377.19249831055885 380.55122176907275C383.49099126257556 376.4262298819147 384.85180102807004 377.88414871093335 396.6501054337945 377.27990130928276C408.44840983951906 376.6756539076321 431.60706603109963 368.9234367813744 433.8243594580365 377.65083424114977C436.0416528849733 386.37823170092514 416.70785045690627 409.18529840828506 407.29311388309134 419.1714091162046 "></path></g></svg>